<svg width="45" height="46" viewBox="0 0 45 46" fill="none" xmlns="http://www.w3.org/2000/svg">
<circle cx="22.5" cy="22.5" r="22.5" fill="white"/>
<path d="M21.6965 6.05525e-05C21.3665 6.05525e-05 21.1153 0.00193563 21.0252 0.0131861C20.7979 0.0359156 20.5704 0.0565424 20.3427 0.0750637C13.9543 0.648838 7.96721 4.09711 4.1758 9.39795C2.07903 12.3072 0.715954 15.6798 0.202508 19.229C0.0225009 20.4647 0 20.8303 0 22.5047C0 24.1792 0.0225009 24.5467 0.202508 25.7824C1.42506 34.2315 7.44031 41.3305 15.595 43.9613C17.0557 44.43 18.5951 44.7525 20.3465 44.9457C21.0271 45.0207 23.9747 45.0207 24.6573 44.9457C27.678 44.6119 30.2394 43.8638 32.7632 42.5756C33.1514 42.3768 33.2264 42.3243 33.1739 42.2793C33.1364 42.2549 31.4863 40.0424 29.5081 37.3666L25.9098 32.5064L21.4021 25.8349C19.9025 23.6027 18.3886 21.3801 16.8607 19.1671C16.8438 19.1634 16.827 22.1279 16.8176 25.7486C16.8044 32.0864 16.7988 32.3395 16.7201 32.4895C16.6436 32.6653 16.5065 32.8077 16.3338 32.8908C16.1932 32.9602 16.0713 32.9733 15.4056 32.9733H14.6425L14.44 32.8458C14.3148 32.7673 14.2131 32.6566 14.1456 32.5252L14.0518 32.3264L14.0631 23.5079L14.0762 14.6857L14.2112 14.5132C14.3034 14.4053 14.4138 14.3146 14.5375 14.245C14.7175 14.1569 14.7887 14.1494 15.55 14.1494C16.4463 14.1494 16.5963 14.1832 16.8288 14.4382C18.6535 17.1537 20.463 19.8795 22.2572 22.6154C25.2149 27.098 28.1744 31.5794 31.1357 36.0597L34.6983 41.458L34.8783 41.3399C36.5936 40.2002 38.1487 38.8362 39.5023 37.2841C42.337 34.0394 44.1755 30.0458 44.7975 25.7824C44.9775 24.5448 45 24.1811 45 22.5047C45 20.8303 44.9775 20.4647 44.7975 19.229C43.5749 10.7799 37.5616 3.68084 29.4068 1.0501C27.8822 0.565365 26.3122 0.236789 24.721 0.0694384C23.7142 0.0217858 22.7064 -0.00134703 21.6984 6.05525e-05H21.6965ZM29.3262 13.5325C29.9769 13.5325 30.0913 13.5419 30.2375 13.6206C30.3423 13.6735 30.4355 13.7466 30.5118 13.8358C30.588 13.925 30.6459 14.0284 30.6819 14.14C30.7157 14.2525 30.725 16.6995 30.7157 22.2104L30.7044 30.1194L29.3093 27.9819L27.9105 25.8443V20.0953C27.9105 16.3789 27.9293 14.2882 27.9537 14.1888C27.9851 14.0715 28.04 13.9618 28.1151 13.8664C28.1902 13.771 28.2839 13.6918 28.3906 13.6338C28.5706 13.54 28.6343 13.5325 29.3281 13.5325H29.3262Z" fill="black"/>
</svg>
